<svg xmlns="http://www.w3.org/2000/svg" viewBox="0 0 64 64" fill="none">
  <path d="M32 12C24 12 18 18 18 24c0 3.5 1.5 6.5 4 8.5V38a2 2 0 002 2h16a2 2 0 002-2v-5.5c2.5-2 4-5 4-8.5 0-6-6-12-14-12z" stroke="white" stroke-width="2.5" fill="none"/>
  <line x1="24" y1="44" x2="40" y2="44" stroke="white" stroke-width="2.5" stroke-linecap="round"/>
  <line x1="26" y1="48" x2="38" y2="48" stroke="white" stroke-width="2.5" stroke-linecap="round"/>
  <path d="M28 24c0-2.2 1.8-4 4-4s4 1.8 4 4" stroke="white" stroke-width="2" stroke-linecap="round" fill="none" opacity="0.6"/>
  <circle cx="44" cy="14" r="2" fill="white" opacity="0.5"/>
  <circle cx="48" cy="20" r="1.5" fill="white" opacity="0.35"/>
  <circle cx="18" cy="16" r="1.5" fill="white" opacity="0.4"/>
</svg>
